<?xml version="1.0" encoding="UTF-8" standalone="no"?>
<svg
   xmlns:dc="http://purl.org/dc/elements/1.1/"
   xmlns:cc="http://creativecommons.org/ns#"
   xmlns:rdf="http://www.w3.org/1999/02/22-rdf-syntax-ns#"
   xmlns:svg="http://www.w3.org/2000/svg"
   xmlns="http://www.w3.org/2000/svg"
   id="svg169953"
   version="1.1"
   viewBox="0 0 673.13428 868.7254"
   height="868.7254mm"
   width="673.13428mm">
  <defs
     id="defs169947" />
  <metadata
     id="metadata169950">
    <rdf:RDF>
      <cc:Work
         rdf:about="">
        <dc:format>image/svg+xml</dc:format>
        <dc:type
           rdf:resource="http://purl.org/dc/dcmitype/StillImage" />
        <dc:title></dc:title>
      </cc:Work>
    </rdf:RDF>
  </metadata>
  <g
     transform="translate(815.08497,345.24965)"
     id="layer1">
    <g
       id="g334933-0-4"
       transform="matrix(9.3632285,0,0,9.3632285,-1497.0374,-2373.9476)">
      <path
         style="color:#000000;font-style:normal;font-variant:normal;font-weight:normal;font-stretch:normal;font-size:medium;line-height:normal;font-family:sans-serif;font-variant-ligatures:normal;font-variant-position:normal;font-variant-caps:normal;font-variant-numeric:normal;font-variant-alternates:normal;font-feature-settings:normal;text-indent:0;text-align:start;text-decoration:none;text-decoration-line:none;text-decoration-style:solid;text-decoration-color:#000000;letter-spacing:normal;word-spacing:normal;text-transform:none;writing-mode:lr-tb;direction:ltr;text-orientation:mixed;dominant-baseline:auto;baseline-shift:baseline;text-anchor:start;white-space:normal;shape-padding:0;clip-rule:nonzero;display:inline;overflow:visible;visibility:visible;opacity:1;isolation:auto;mix-blend-mode:normal;color-interpolation:sRGB;color-interpolation-filters:linearRGB;solid-color:#000000;solid-opacity:1;vector-effect:none;fill:#000000;fill-opacity:1;fill-rule:nonzero;stroke:none;stroke-width:1.86500001;stroke-linecap:round;stroke-linejoin:miter;stroke-miterlimit:4;stroke-dasharray:none;stroke-dashoffset:0;stroke-opacity:1;color-rendering:auto;image-rendering:auto;shape-rendering:auto;text-rendering:auto;enable-background:accumulate"
         d="m 95.40252,269.32601 c 0.045,0.19968 0.0963,0.39203 0.11679,0.60565 0.0323,0.33634 0.0925,0.84413 0.061,1.03818 -0.009,0.0543 -0.0136,0.0582 -0.0217,0.0842 -0.006,0.005 -0.0308,0.0127 -0.0388,0.0176 -0.0279,0.017 -0.0583,0.0386 -0.0868,0.0574 l -0.44286,-1.15186 -0.0191,-0.0506 c 0.13699,-0.21125 0.27931,-0.41442 0.43149,-0.60048 z m 1.32809,2.64842 c 0.0899,0.14684 0.20423,0.37063 0.32607,0.66611 0.26237,0.63617 0.54272,1.52913 0.73846,2.44326 0.19574,0.91413 0.30441,1.8568 0.25735,2.57245 -0.0471,0.71565 -0.25075,1.09464 -0.43511,1.19166 -1.0582,0.55691 -1.68317,1.59908 -2.20917,2.5957 -0.46155,0.8745 -0.8515,1.64663 -1.23817,2.19108 -0.77818,-0.34235 -1.36015,-0.56464 -1.84949,-0.99001 -0.70878,-0.64269 -0.96519,-1.27148 -1.06093,-1.4765 0.0204,-2.02608 0.14281,-3.29501 0.35967,-4.06642 0.2208,-0.78538 0.53898,-1.24553 0.97462,-1.98851 0.0763,-0.068 0.91845,-0.82055 1.94148,-1.63297 0.53416,-0.4242 1.0964,-0.84612 1.56218,-1.14825 0.2329,-0.15107 0.44232,-0.27019 0.5979,-0.34365 0.0279,-0.0132 0.0106,-0.005 0.0351,-0.0139 z m -2.89285,0.20205 0.002,0.005 0.002,0.005 0.0279,0.0734 0.0279,0.0734 c -0.0327,0.0274 -0.0649,0.054 -0.0971,0.0806 -0.0322,0.0266 -0.0644,0.0534 -0.0972,0.0811 0.0212,-0.0524 0.0437,-0.10553 0.0665,-0.15888 0.0228,-0.0533 0.0458,-0.10688 0.0679,-0.15997 h 7e-5 z m 2.47463,11.44317 0.41253,0.57315 -0.56999,6.30246 c -0.0357,-0.14269 1.84028,1.09231 2.33784,2.90112 0.49755,1.8088 0.59243,2.92163 0.42965,3.8678 -0.16277,0.94618 -0.20331,1.01216 -0.53403,1.65589 -0.0102,0.0198 -1.35696,1.43179 -1.31897,1.01908 0.038,-0.41271 0.79863,-1.59121 0.92248,-2.36344 0.046,-1.34867 -0.25326,-3.49469 -0.67972,-4.2705 -0.42647,-0.77581 -0.94486,-1.28291 -0.94486,-1.28291 l -1.27485,-0.83871 0.69298,-6.53397 -0.52917,-0.29352 c 0.2344,-0.33761 0.28472,-0.52818 0.65863,-1.24485 0.19494,-0.3674 0.58568,-1.04979 0.60268,-1.08213 0.14452,-0.30816 0.68522,-1.09813 0.68522,-1.09813 l 4.70928,12.25042 c -1.00416,0.54848 -0.67615,0.61506 -0.66173,0.92019 -0.66327,0.22219 -0.9527,0.88392 -1.0529,1.30603 -0.1002,0.42211 -0.0877,0.85486 -0.0274,1.29294 0.12054,0.87617 0.44204,1.79396 0.73019,2.64067 0.63697,1.87166 1.57339,2.6948 2.36523,2.88768 0.55442,0.13504 1.09361,0.016 1.82418,-0.14108 0.0723,-0.0155 0.15108,-0.0351 0.22583,-0.0522 l 0.66404,1.72703 2.04483,5.51646 c 0.62279,0.45324 2.81707,-0.34241 2.62672,-0.92863 l -3.49953,-6.80889 c 0.14401,-0.0425 0.28,-0.079 0.42633,-0.1235 1.93968,-0.59008 3.76566,-1.98438 3.76566,-1.98438 0.18806,-0.14106 0.22631,-0.37263 0.24185,-0.6072 0.0646,-0.97558 -0.0103,-2.80673 -0.13327,-4.06996 -0.11075,-0.59114 -0.0766,-2.00219 -0.73386,-2.14723 l -3.69694,-0.75964 c -0.0405,-0.008 -0.0817,-0.012 -0.12299,-0.0119 -0.0434,-5.3e-4 -0.0867,0.003 -0.12919,0.0119 -0.9927,0.14324 -1.82593,0.19401 -3.12177,0.64854 L 98.68176,279.5812 c 0.42216,-0.47158 0.5774,-1.15385 0.622701,-1.84278 0.0595,-0.90515 -0.0715,-1.92972 -0.283181,-2.91817 -0.21166,-0.98845 -0.50554,-1.93304 -0.80461,-2.65824 -0.14953,-0.3626 -0.29659,-0.66884 -0.45682,-0.91777 -0.0801,-0.12447 -0.16136,-0.23459 -0.27543,-0.3421 -0.11252,-0.10605 -0.28039,-0.24444 -0.57826,-0.24598 -0.0261,-2.6e-4 -0.0481,0.003 -0.0729,0.005 -0.0103,-0.28817 -0.0414,-0.5979 -0.0656,-0.85008 -0.04,-0.41629 -0.11813,-0.83981 -0.24237,-1.22111 -0.12423,-0.3813 -0.25226,-0.73619 -0.63303,-1.01131 -0.11988,-0.0867 -0.26641,-0.12831 -0.41393,-0.1173 -0.1544,0.0114 -0.29903,0.0794 -0.40618,0.1912 -0.246,0.25661 -0.47165,0.51039 -0.68212,0.76481 L 79.45931,229.57495 78.82627,227.9275 c -0.1,-0.27072 -0.18148,-0.54373 -0.55707,-0.53692 -0.12519,0.002 -0.28303,0.0356 -0.48524,0.11059 -0.80885,0.3002 -0.94601,0.36834 -0.69815,0.98702 l 0.56224,1.57252 15.46934,40.2425 c -0.62163,1.15162 -1.08616,2.45558 -1.60507,4.16099 -0.42699,0.72884 -0.82812,1.33185 -1.10019,2.2996 -0.35408,1.77053 -0.35206,2.62655 -0.36315,3.97685 -0.13686,-0.10463 -0.32002,-0.29686 -0.39015,-0.43709 -0.5898,5.91309 -0.96937,11.62449 -1.50763,17.54268 0.1332,1.58871 1.54037,5.95155 4.22455,8.08995 5.19323,-1.13159 7.067389,-3.81364 7.71891,-5.93504 0,0 -0.536099,-1.64494 -0.74268,-3.25921 -0.1517,-1.18541 -0.02471,-2.37112 0.11171,-2.79159 0.0812,-0.25041 0.14664,-0.79499 1.3069,-1.156 l -4.0297,-10.17047 z m 10.58401,9.48424 3.1073,0.63872 c 0.27262,0.65936 0.33514,1.33619 0.37384,2.11658 0.0436,0.87902 0.0396,1.86859 -0.0597,2.71516 -0.25132,0.1804 -1.62354,1.19422 -3.10317,1.64435 -0.87807,0.26712 -1.71769,0.49849 -2.389,0.64285 -0.6713,0.14436 -1.23553,0.15719 -1.26349,0.15038 -0.37291,-0.0908 -1.23081,-0.48161 -1.74821,-2.00195 -0.28903,-0.84928 -0.58134,-1.72227 -0.67541,-2.40605 -0.047,-0.34189 -0.0423,-0.63226 0.006,-0.83406 0.0479,-0.20179 0.11477,-0.30998 0.24804,-0.41031 0.23753,-0.1263 0.43382,-0.067 0.62322,0.0233 0.29821,0.12267 0.70661,0.24739 1.29656,0.34985 h 5.3e-4 c 0.15494,0.0269 0.30542,0.0464 0.45166,0.0594 0.14635,0.013 0.28836,0.0195 0.42581,0.0202 h 5.3e-4 c 0.002,10e-6 0.004,0 0.006,0 0.82185,0.003 1.4823,-0.20202 1.95802,-0.44855 0.37363,-0.21063 0.72525,-0.60055 0.94929,-0.91312 0.21791,-0.30402 0.0869,-0.53386 -0.14056,-0.63201 -0.22653,-0.0978 -0.6017,-0.003 -0.77256,0.0553 -0.37173,0.12589 -0.5895,0.15468 -0.90951,0.20464 -0.30211,0.0718 -0.63628,0.12417 -0.96583,0.15658 l -0.0124,-0.032 -0.19843,-0.51624 -0.003,-0.007 c 0.61635,-0.23697 1.3264,-0.51782 2.79466,-0.57619 z"
         id="path84058-9-5-6-5" />
      <path
         style="display:inline;opacity:1;fill:#ffffff;stroke:none;stroke-width:0.26458332px;stroke-linecap:butt;stroke-linejoin:miter;stroke-opacity:1"
         d="m 122.30817,225.05182 c -2.50333,0.006 -5.30716,0.31147 -8.46564,0.66766 -4.16627,0.4868 -7.47439,0.90755 -10.79314,1.42058 -3.483428,0.53849 -6.864141,1.174 -10.586432,1.68724 -3.708709,0.5498 -9.967807,0.82004 -12.222509,-1.78904 l 4.208013,11.0262 3.064412,8.05119 2.96106,8.09046 3.03289,7.83776 c 0,0 1.541198,-3.57084 7.760246,-4.40024 0.27131,-4.91189 0.58785,-8.87216 0.80512,-11.7073 1.04867,-0.25698 4.46637,-0.31226 6.02134,-0.31526 3.42094,-0.006 7.17581,0.80429 8.22482,1.70532 -0.0108,2.02712 -0.15797,3.83747 -0.24339,5.94899 -0.0785,1.94079 -0.0983,4.18623 -0.0564,5.98882 1.78306,0.27967 2.62301,0.65147 4.21214,1.15393 2.82771,0.89409 5.42541,2.44294 8.1163,4.10053 2.26658,1.3962 4.72013,3.24451 7.22282,5.41 2.18587,1.89136 4.48918,3.62365 7.09362,6.33812 -0.3152,-4.88678 -0.10599,-7.308 -0.68833,-11.02724 -0.52338,-3.34273 -1.74124,-8.08858 -1.84329,-11.09027 -0.11895,-3.49831 0.77433,-7.54026 1.85311,-10.74199 1.12693,-3.3446 2.04602,-7.69196 2.73937,-10.80657 -4.08267,-2.49944 -7.01347,-4.63673 -9.41285,-5.57589 -3.41639,-1.33723 -5.89552,-1.4169 -10.59832,-1.86913 -0.76973,-0.074 -1.57058,-0.10575 -2.40502,-0.10387 z"
         id="path418940-2-6-6-6-3-4-1" />
      <path
         style="display:inline;opacity:1;fill:#ff0000;fill-opacity:1;fill-rule:evenodd;stroke:none;stroke-width:0.26694748;stroke-linecap:butt;stroke-linejoin:round;stroke-miterlimit:4;stroke-dasharray:none;stroke-dashoffset:0;stroke-opacity:1;paint-order:fill markers stroke"
         d="m 80.24064,227.03838 1.49119,4.01097 c 1.13549,2.85486 1.63192,4.38129 2.71663,7.01507 0.90251,-0.63111 1.41934,-0.79962 2.88045,-1.21284 2.11577,-0.69833 4.77408,-1.35234 7.22798,-1.89188 -0.48811,-2.20268 -0.98665,-3.99969 -1.65106,-5.33817 l -0.0729,-0.14935 c -0.11838,-0.228 -0.24006,-0.44595 -0.37001,-0.64492 -1.650056,0.24729 -3.210508,0.35241 -4.87509,0.36469 -2.965873,0.0219 -5.772499,-0.63898 -7.34723,-2.15357 z m 14.31625,7.92132 c 0.24008,1.08343 0.47998,2.27296 0.72812,3.51762 0.37153,1.88845 0.78215,3.78769 1.29708,5.78621 0.54186,-0.09 1.0908,-0.1778 1.64021,-0.262 2.6e-4,-4e-5 0.11703,-0.0185 0.11731,-0.0186 2.99174,-0.4012 6.06075,-0.63558 9.09918,-0.64854 -0.43096,-2.18306 -0.69976,-4.19202 -0.92656,-6.24768 -0.1463,-1.32392 -0.28954,-2.60743 -0.4656,-3.73517 -3.1487,0.20463 -6.43715,0.59905 -9.59735,1.20509 0.001,-2.4e-4 -0.12619,0.0272 -0.12506,0.0269 -0.58661,0.12087 -1.17917,0.24689 -1.76733,0.37621 z m 11.48974,-1.60817 c 2.01204,-0.13075 3.99469,-0.18579 5.90196,-0.1664 1.63353,0.01 3.24229,0.0636 4.80229,0.1664 -0.23362,-3.11636 -0.75326,-5.63287 -2.90835,-7.63209 -1.66103,0.17959 -3.35529,0.39111 -5.00744,0.6103 -1.88178,0.24989 -3.92387,0.53858 -5.7857,0.81028 1.90681,1.30667 2.56052,3.41401 2.99724,6.21151 z m 10.70425,0 c 0.0936,1.24872 0.14119,2.67353 0.19638,4.09949 0.0902,2.22378 0.24303,4.3761 0.57722,6.71277 3.15555,0.54517 5.98604,1.33554 8.61033,2.35903 -0.22026,-2.48072 -0.23028,-4.81152 -0.12092,-7.20731 0.0781,-1.57148 0.17929,-2.96831 0.25734,-4.53978 -2.9521,-0.75112 -6.13904,-1.20148 -9.52035,-1.4242 z m 9.52035,1.4242 c 0.14482,0.0368 0.28926,0.0743 0.43305,0.11266 2.72557,0.74876 5.2298,1.72686 7.64915,3.05924 0.72014,-3.69488 1.491,-7.28134 0.95808,-10.92284 -3.24252,-1.16462 -6.61605,-1.72652 -10.06812,-1.8526 -0.17679,-0.006 -0.35329,-0.0118 -0.5302,-0.0165 1.69629,2.9718 1.72952,6.10629 1.55804,9.62008 z m 8.0822,3.1719 c -0.30267,1.55291 -0.59256,3.08366 -0.82941,4.72633 -0.33725,2.42621 -0.47905,4.81441 -0.36845,7.31325 2.21832,1.27768 4.37029,2.67087 6.97632,4.16202 -0.0378,-2.18965 0.19196,-4.2941 0.65939,-6.41666 0.32218,-1.46615 0.73358,-2.88811 1.19372,-4.32532 -2.73395,-2.31494 -5.0365,-4.03047 -7.63157,-5.45962 z m -1.19786,12.03958 c -2.13055,-1.22713 -4.23929,-2.31442 -6.63991,-3.31349 -0.12645,-0.0508 -0.2532,-0.10111 -0.38085,-0.1509 0.12932,1.45645 0.32375,2.87681 0.57929,4.29224 0.1652,0.87584 0.33934,1.69713 0.51573,2.47686 0.33208,1.49165 0.66747,2.80396 0.93689,3.97495 0.12448,0.064 0.24816,0.12842 0.37156,0.19327 2.37792,1.29448 4.38236,2.57377 6.53086,3.92172 -0.29718,-1.35357 -0.653,-2.81597 -0.98236,-4.40955 -0.1739,-0.83308 -0.33952,-1.69765 -0.4868,-2.60191 -0.22822,-1.45472 -0.3791,-2.90778 -0.44441,-4.38319 z m 1.91357,11.39465 c 0.10255,0.46705 0.1979,0.91999 0.28371,1.36323 0.47853,2.53719 0.65873,4.84065 0.21704,7.18354 2.36061,2.00346 4.56181,4.05127 7.09362,6.33811 0.36107,-3.06824 0.22872,-6.11476 -0.36535,-9.38754 -0.0993,-0.54766 -0.20791,-1.09304 -0.32298,-1.63969 -2.50555,-1.11936 -4.73813,-2.49754 -6.90604,-3.85765 z m -6.90242,-4.11499 c -2.56879,-1.32106 -5.2895,-2.41843 -8.34884,-3.24322 0.0985,0.35467 0.18932,0.69286 0.27078,1.01751 0.44486,1.80949 0.6736,3.44249 0.14211,5.37694 2.8845,1.09191 5.57254,2.4821 8.1163,4.10052 0.62521,-2.08631 0.47831,-3.98512 0.0724,-6.08697 -0.0747,-0.37399 -0.15979,-0.76101 -0.25269,-1.16478 z m -8.34884,-3.24322 c -0.28595,-1.02922 -0.63532,-2.20418 -0.9927,-3.56877 -0.19079,-0.71315 -0.38176,-1.46952 -0.56999,-2.28358 -0.29228,-1.31827 -0.53558,-2.64306 -0.73071,-4.00751 -1.44787,-0.25013 -2.94471,-0.4451 -4.48655,-0.58498 -1.8035,-0.17203 -3.67417,-0.25264 -5.59914,-0.24443 0.17474,0.88512 0.44199,1.42499 0.65474,2.28669 1.44286,0.0403 2.90791,0.16774 4.18993,0.37827 1.43098,0.33491 3.01632,0.45731 4.03489,1.32705 l -0.24339,5.94899 c 1.33274,0.23445 2.48295,0.40858 3.74292,0.74827 z m -23.23579,-9.76012 c -2.26601,0.3766 -4.60231,0.82191 -6.26422,1.19166 -1.16503,0.21871 -2.13579,0.44086 -2.80499,0.66042 0.90197,2.72819 1.89955,5.17587 2.96106,8.09046 0.73529,-0.048 1.12932,-0.11701 2.41794,-0.23512 1.93725,-0.25033 4.22165,-0.6157 6.551021,-0.93328 -0.385451,-0.95605 -0.785231,-2.02718 -1.198381,-3.2582 -0.22451,-0.63723 -0.45087,-1.3105 -0.67799,-2.02468 -0.35469,-1.15281 -0.68111,-2.31402 -0.98444,-3.49126 z m 2.860811,8.77414 c 0.132419,0.32843 0.262409,0.64139 0.39015,0.94206 0.634619,1.48373 0.800189,2.21768 1.434029,3.66386 l 0.2713,-4.91185 c -0.87546,0.0714 -1.29109,0.19641 -2.095479,0.30593 z"
         id="rect83617-26-7-7-1-3-7-0" />
      <path
         style="display:inline;opacity:1;fill:#000000;stroke-width:0.06112411"
         d="m 77.30806,255.6078 c -0.1162,-0.19604 -0.33532,-0.57957 -0.4869,-0.85229 -0.34739,-0.62495 -0.62851,-1.02101 -0.72829,-1.026 -0.0425,-0.002 -0.37451,0.0683 -0.73773,0.15655 -0.80891,0.19652 -1.05982,0.23632 -1.05805,0.16778 0,-0.029 0.19139,-0.58055 0.42368,-1.22576 0.74344,-2.06515 0.88135,-2.55039 1.15053,-4.04775 0.0363,-0.20175 0.0687,-0.25398 0.13959,-0.22469 0.0508,0.0211 0.32178,0.0844 0.60228,0.14053 0.28047,0.0564 0.58432,0.14295 0.67526,0.1923 0.17961,0.0976 0.94952,0.31177 1.61744,0.44994 l 0.41963,0.0869 -0.0611,0.92225 c -0.0336,0.50721 -0.096,1.08642 -0.13861,1.2871 -0.13557,0.63837 -0.53797,1.84504 -0.85707,2.57013 -0.16988,0.38598 -0.39302,0.94039 -0.49585,1.23202 -0.10286,0.29162 -0.20198,0.52961 -0.22025,0.52882 -0.0184,0 -0.1283,-0.16179 -0.24452,-0.35786 z"
         id="path84399-2-0-4-5-5-2-8-4-3" />
      <path
         style="display:inline;opacity:1;fill:#000000;stroke-width:0.1137654"
         d="m 77.55262,248.49616 c -0.29636,-0.19492 -0.26055,-0.69639 -0.27457,-2.36301 -0.014,-1.66663 -0.78189,-4.25471 -1.06798,-4.83033 -0.32241,-0.64872 -1.05672,-2.88266 -1.3204,-3.97769 -0.69926,-2.904 -0.8914,-5.76362 -0.47867,-7.12409 0.31615,-1.04215 0.30476,-1.1055 -0.19272,-1.07289 -0.32567,0.0213 -0.5988,-0.009 -0.97125,-0.3353 -0.32925,-0.36893 -0.38383,-0.53998 -0.40822,-0.91195 -0.0378,-0.57604 0.11061,-1.13442 0.43473,-1.63624 0.31486,-0.48751 0.76167,-0.83736 1.52701,-1.14865 0.3245,-0.13198 0.35814,-0.13041 0.57338,-0.24628 -0.0494,-0.20471 -0.0439,-0.15234 -0.0825,-0.28894 -0.0693,-0.245 -0.23199,-0.65213 -0.23199,-0.65213 -0.23722,0.0359 -0.28822,0.0553 -0.54641,0.0378 -0.54718,-0.0373 -0.95905,-0.25054 -1.26079,-0.65302 -0.25967,-0.3464 -0.35736,-1.83209 -0.31742,-4.82814 l 0.0239,-1.7988 2.24187,1.94238 c 1.30534,1.13096 2.34002,2.11845 2.47679,2.36383 0.30326,0.54405 0.18741,1.13635 -0.33983,1.73756 l -0.36932,0.42116 0.26196,0.43985 0.31162,0.5556 0.73874,-0.16746 c 0.41224,-0.0934 0.80724,-0.0213 0.93117,0.17769 0.11856,0.19042 0.10093,0.28034 -0.1038,0.52919 -0.18854,0.22917 -0.23685,0.42448 -0.20506,0.82923 l 0.0416,0.52948 -0.61716,0.0596 c -1.22667,0.11814 -2.14341,0.82921 -2.25425,1.74852 -0.0959,0.78992 0.69806,3.78404 1.83481,6.92471 3.88523,10.73464 4.3077,12.18816 3.25228,11.18916 -0.30064,-0.28456 -1.33215,-2.68748 -1.83323,-4.27061 -0.16527,-0.52216 -0.5379,-1.54948 -0.82801,-2.2829 -0.29014,-0.73344 -0.65976,-1.76095 -0.8214,-2.28337 -0.16163,-0.52239 -0.64074,-1.91829 -1.0647,-3.102 -0.42393,-1.18372 -0.85928,-2.57889 -0.96739,-3.10035 -0.10814,-0.52149 -0.23634,-0.94554 -0.28488,-0.94234 -0.41554,0.0272 -0.123,4.48517 0.44699,6.81126 0.29284,1.19519 0.44125,1.70119 1.74512,5.36954 0.63931,1.79859 0.74566,4.61105 0.76452,5.54037 -0.0309,0.70418 -0.008,1.18793 -0.76452,0.80956 z"
         id="path84386-6-9-05-3-3-9-3-8-7" />
      <path
         style="display:inline;opacity:1;fill:#000000;fill-opacity:1;stroke:none;stroke-width:0.05997064px;stroke-linecap:butt;stroke-linejoin:miter;stroke-opacity:1"
         d="m 101.26798,302.05279 c 0.47857,0.71898 1.03204,1.13046 1.57331,1.19653 0.54126,0.0661 1.81791,-0.30207 1.81791,-0.30207 l 0.7803,1.31448 -8.14899,0.3654 c 0,0 1.31273,-0.74921 1.91841,-1.50327 0.605689,-0.75406 1.23298,-2.43036 1.23298,-2.43036 0,0 0.3475,0.64032 0.82608,1.35929 z"
         id="path419672-5-5-3-7-5-8" />
      <path
         style="display:inline;opacity:1;fill:#000000;fill-opacity:1;stroke:#000000;stroke-width:0.05997064px;stroke-linecap:butt;stroke-linejoin:miter;stroke-opacity:1"
         d="m 91.28316,305.83319 c -0.79591,0.22394 -0.84952,0.25794 -1.90772,0.69885 -2.57016,1.07093 -6.25409,1.75627 -8.43873,0.64254 -2.18466,-1.11374 -3.38409,-2.91285 -3.38409,-2.91285 0,0 1.67065,1.0709 5.01186,-0.17135 2.12199,-0.78893 3.26803,-2.01131 5.30784,-3.58203 0.64751,2.56555 1.95183,4.07016 3.41084,5.32484 z"
         id="path419660-6-6-1-9-8-8" />
      <path
         style="display:inline;opacity:1;fill:#000000;fill-opacity:1;stroke:none;stroke-width:0.26458332px;stroke-linecap:butt;stroke-linejoin:miter;stroke-opacity:1"
         d="m 107.03778,246.56472 c -1.55497,0.003 -3.01258,0.12232 -4.06125,0.3793 l -0.81804,15.06626 c -1.19329,0.91809 -3.917394,0.88851 -5.876126,1.33274 -0.17544,0.22684 -0.185743,1.67713 -0.07441,1.90531 0,0 3.375646,-0.57225 3.815786,-0.55604 -0.484108,0.62215 -0.925557,1.24216 -1.355987,1.96216 -0.65324,1.0927 -0.987671,2.45523 -0.779282,3.66747 0.20838,1.21224 1.880668,1.6477 2.940389,1.91978 0.0173,0.4152 -0.54538,3.3197 -0.59918,3.87605 -0.0538,0.55634 -0.0611,1.45078 -0.009,1.92668 0.0786,0.71713 0.3696,1.72337 0.3696,1.72336 l -0.803886,0.44397 4.498506,11.25508 c 1.11322,-0.0764 2.34404,-0.37903 2.60287,-0.43972 0.20408,-1.11216 0.43205,-1.85959 0.49713,-2.86701 l 2.1239,0.12971 -0.84853,-6.62751 c 1.494,-1.18389 1.62622,-1.72846 1.99471,-2.32544 0.67162,-1.59913 0.74434,-2.27366 1.12913,-3.87728 0.28895,-1.67599 0.33338,-3.28622 0.42013,-4.09019 0.90504,-0.46728 1.74252,-0.99406 2.22829,-1.44952 0.48578,-0.45547 1.50381,-1.78172 1.4242,-2.74195 -0.0796,-0.96024 -0.23882,-1.53087 -1.22008,-2.48822 0,0 3.97306,0.57447 4.2106,0.56689 0.14156,-0.0208 0.26431,-0.27864 0.27905,-0.30076 0.27074,-0.40641 -3.15701,-2.70328 -3.56981,-2.91352 -0.40208,-0.20478 -0.28184,-1.21922 -0.31264,-1.61954 -0.0606,-0.78752 -0.0605,-1.69602 -0.0605,-1.69602 l 0.21652,-10.70839 c -1.04902,-0.90102 -4.94135,-1.45974 -8.36229,-1.45365 z m 1.77043,12.3734 c 2.73294,0.0188 4.25618,0.3256 5.46304,0.648 -0.0236,1.27567 0.11233,2.57454 0.11233,2.57454 0,0 -2.22684,-0.56844 -6.12469,-0.7338 -3.89791,-0.16537 -5.05809,0.26561 -5.05809,0.26561 l 0.1385,-2.63239 c 0,0 2.73598,-0.14079 5.46891,-0.12196 z m -5.09219,5.06067 c 1.69447,-0.0385 5.14627,0.44309 5.31854,0.66456 0.75535,0.81597 1.24813,2.46793 1.45055,3.09852 l 1.3193,-0.0109 c 0.2968,-0.92832 1.19839,-1.57449 2.0159,-1.45211 0.81783,0.12115 0.82959,1.03143 0.83612,1.24592 0.007,0.21451 0.0119,1.08649 -1.01802,1.75287 -1.02983,0.66636 -2.038,1.14637 -2.51406,1.4211 0,0.22348 -0.2661,3.6699 -0.90874,6.24054 -0.3154,1.26164 -0.9098,2.22445 -1.24152,2.66279 -1.0076,1.33148 -2.13575,1.87652 -3.42201,1.94149 -1.28625,0.065 -2.31368,-0.39347 -2.92488,-0.91261 -0.61121,-0.51914 -1.23624,-1.99947 -1.24954,-3.22823 -0.0133,-1.22876 0.36328,-2.90783 0.36328,-2.90783 0,0 1.65941,0.74997 3.08302,0.53795 2.2859,-0.51915 3.07113,-2.09755 3.07113,-2.09755 l 0.65164,0.21291 c 0.24489,-0.0629 0.46612,-0.55947 0.41289,-0.78651 -0.95347,-0.58389 -1.73894,-0.8967 -2.40915,-1.02423 -0.20633,0.0602 -0.4005,0.4337 -0.42375,0.72709 l 0.60565,0.30282 c -0.0717,0.54929 -1.09427,1.25801 -1.98799,1.32499 -0.9087,0.18175 -2.68023,-0.21171 -2.80138,-0.42375 0.0793,-0.51271 0.18148,-1.03556 0.29094,-1.9389 -0.73479,-0.19906 -2.238343,-0.5697 -2.634982,-0.95653 -0.396621,-0.38684 -0.511651,-1.03322 -0.05736,-2.00246 0.796182,-1.4742 1.527802,-2.87163 3.343982,-4.27261 0.14197,-0.0738 0.4394,-0.11051 0.83044,-0.11937 z"
         id="path419061-78-9-9-9-3-26-6" />
      <path
         style="display:inline;opacity:1;fill:#000000;fill-opacity:1;stroke:none;stroke-width:0.26458332px;stroke-linecap:butt;stroke-linejoin:miter;stroke-opacity:1"
         d="m 115.1207,270.49441 c -0.381,0.38734 -0.94375,0.7914 -1.33687,1.07539 0.14837,0.56698 0.57642,6.53212 0.45527,7.74371 -0.004,2.73166 -0.0315,4.20168 -0.66611,8.45633 l 2.63085,-0.40772 c 0.15882,0.84134 -1.07933,3.4351 -1.49914,5.47253 6.30692,2.00243 11.08423,3.94387 17.90434,6.60942 -1.59718,-0.33107 -3.49522,-0.71189 -4.42609,-0.99684 0.40995,0.68856 1.8695,3.03231 0.80047,2.28333 -1.53822,-1.37218 -2.43481,-2.26736 -3.37344,-3.0037 -2.03896,-0.85526 -4.93416,-2.10233 -6.68135,-2.57822 -2.89423,-0.94651 -4.17475,-1.39167 -6.13595,-2.06284 -0.24451,-0.0865 -0.86032,-0.19305 -1.09554,-0.26924 0.0406,0.38653 0.0851,0.64612 0.1173,1.00149 0.37482,4.14736 0.7258,6.32685 -0.54984,9.21029 -0.37314,-0.94904 -0.32492,-1.41523 -0.49506,-2.389 -0.0522,0.0522 -0.93568,0.41125 -1.22783,0.58653 -0.0504,0.0303 -0.0825,2.666 0.79272,3.03599 h 3.05149 c 0.59226,-0.19555 0.60411,-0.35975 0.90279,-1.23352 0.29868,-0.87376 0.78191,-2.33866 1.11001,-2.91093 0.19775,2.20365 -0.57008,3.4301 -0.63562,4.14445 4.1777,0.85964 9.79034,4.56912 14.23479,5.1847 2.32871,0.0447 5.32656,-3.04654 6.79648,-5.1847 0.55552,-1.8802 0.33916,-3.15354 -0.50384,-5.95623 -1.054,-3.50418 -1.68724,-3.09205 -4.6483,-8.02069 0,0 -1.53579,-2.17456 -2.17041,-6.27921 -0.63462,-4.10465 -2.56625,-5.41362 -2.56625,-5.41362 l -9.01392,-0.95653 c -0.79463,-1.21183 -2.68584,-5.30091 -1.55184,-6.68539 z m 5.27048,11.74657 c 0.76228,2.89 1.30887,2.88854 0.86868,5.98 -0.44019,3.09146 -2.2717,4.77749 -2.2717,4.77749 0.10022,-0.20046 0.86857,-2.53914 1.13585,-6.2141 0.26726,-3.67495 0.26717,-4.54339 0.26717,-4.54339 z"
         id="path84296-8-1-1-4-7-0-0" />
      <ellipse
         style="display:inline;opacity:1;fill:#000000;fill-opacity:1;fill-rule:evenodd;stroke:none;stroke-width:0.06799821;stroke-linecap:butt;stroke-linejoin:round;stroke-miterlimit:4;stroke-dasharray:none;stroke-dashoffset:0;stroke-opacity:1;paint-order:fill markers stroke"
         id="path83623-7-3-8-2-2-7-8-6-4"
         cx="104.86969"
         cy="267.85919"
         rx="0.98441678"
         ry="1.9536886" />
    </g>
  </g>
</svg>
